<svg width="100" height="100" viewBox="0 0 100 100" fill="none" xmlns="http://www.w3.org/2000/svg">
<path fill-rule="evenodd" clip-rule="evenodd" d="M42.7507 76.471C45.7378 75.9286 48.6067 77.9156 49.1491 80.9027C49.6916 83.8898 47.7033 86.7516 44.7162 87.294C41.7291 87.8365 38.8686 85.8553 38.3261 82.8682C37.7837 79.881 39.7636 77.0135 42.7507 76.471Z" fill="url(#paint0_linear_913_566)"/>
<path fill-rule="evenodd" clip-rule="evenodd" d="M77.5005 69.1445C80.7592 68.5527 83.8888 70.7203 84.4806 73.979C85.0724 77.2377 82.9033 80.3596 79.6447 80.9514C76.386 81.5431 73.2655 79.3818 72.6737 76.1231C72.0819 72.8645 74.2419 69.7362 77.5005 69.1445Z" fill="url(#paint1_linear_913_566)"/>
<path d="M13.7191 27.0012C11.6559 26.8138 9.82133 28.3138 9.62154 30.3516C9.42174 32.3894 10.9323 34.1932 12.9956 34.3806L16.2209 34.6735C19.4498 34.9668 22.1825 37.18 23.1403 40.2775L26.4119 50.8586C26.4695 51.2013 26.5501 51.5447 26.6548 51.8869L31.3671 67.2929C31.4383 67.5256 31.5192 67.7529 31.6094 67.9744C31.7842 68.4039 31.9687 68.8303 32.1056 69.2733L32.6169 70.9269C33.2212 72.8814 35.3185 73.9746 37.3013 73.3685C37.9625 73.1664 38.6416 72.9752 39.3324 72.9474C39.7016 72.9325 40.0737 72.8918 40.4466 72.8241L77.9451 66.0144C81.8047 65.3135 84.5867 61.9175 84.5143 57.9955L84.2151 41.7882C84.1241 36.8583 79.6383 33.1836 74.787 34.0646L32.8755 41.6757C32.1359 41.81 31.357 41.4345 31.135 40.7164L28.5915 32.4903C28.5797 32.452 28.5663 32.4073 28.5514 32.3569C28.4077 31.8742 28.1096 30.8723 27.4708 30.0446C26.9334 29.3484 26.2361 28.7885 25.4359 28.4107C24.4846 27.9615 23.4294 27.8767 22.9209 27.8359C22.8678 27.8316 22.8207 27.8278 22.7803 27.8242L13.7191 27.0012Z" fill="url(#paint2_linear_913_566)"/>
<path fill-rule="evenodd" clip-rule="evenodd" d="M53.0173 16.3472C53.8314 15.6006 55.0965 15.6554 55.8431 16.4695L62.5336 23.7658C63.2802 24.58 63.2254 25.8451 62.4113 26.5916C61.5972 27.3381 60.332 27.2834 59.5855 26.4692L52.8949 19.1729C52.1484 18.3588 52.2032 17.0937 53.0173 16.3472Z" fill="url(#paint3_linear_913_566)"/>
<path fill-rule="evenodd" clip-rule="evenodd" d="M91.8093 18.0269C91.0628 17.2128 89.7977 17.158 88.9836 17.9046L81.6872 24.5951C80.8731 25.3417 80.8183 26.6068 81.5649 27.4209C82.3114 28.235 83.5765 28.2898 84.3906 27.5433L91.687 20.8527C92.5011 20.1062 92.5559 18.841 91.8093 18.0269Z" fill="url(#paint4_linear_913_566)"/>
<path fill-rule="evenodd" clip-rule="evenodd" d="M72.7632 9.10878C71.6597 9.06099 70.7264 9.91684 70.6786 11.0204L70.2026 22.0101C70.1548 23.1136 71.0107 24.0469 72.1142 24.0947C73.2178 24.1425 74.1511 23.2867 74.1989 22.1831L74.6748 11.1934C74.7226 10.0899 73.8668 9.15657 72.7632 9.10878Z" fill="url(#paint5_linear_913_566)"/>
<g opacity="0.6">
<path fill-rule="evenodd" clip-rule="evenodd" d="M56.8741 49.3171C56.8819 49.3161 56.8897 49.3151 56.8974 49.3142C56.903 49.3135 56.9085 49.3128 56.914 49.3121C57.0508 49.2953 57.1841 49.2671 57.3161 49.2393C57.6451 49.1698 57.9656 49.1022 58.3093 49.2156L60.533 45.8191C60.7952 45.4186 61.4199 45.4749 61.5845 45.9139L64.6503 54.0942C65.7328 56.9824 64.035 60.1295 61.0493 61.0724C60.9021 61.1306 60.7448 61.1763 60.5775 61.2067L54.4173 62.3254C50.9843 62.9488 47.844 60.4757 47.8416 57.1467L47.8356 48.4107C47.8352 47.9419 48.4003 47.6695 48.7866 47.9522L52.0625 50.35L52.1516 50.3339L55.0325 47.991L54.9447 49.475C55.155 49.2133 55.395 48.9736 55.6582 48.7604C55.709 48.7193 55.7607 48.6791 55.8132 48.64C55.902 48.5739 55.9931 48.5108 56.0864 48.4508C56.1377 48.4179 56.354 48.3103 56.4153 48.3091C56.5635 48.3061 56.5104 48.5256 56.4701 48.6924C56.4631 48.7216 56.4564 48.7491 56.4513 48.7736C56.4476 48.7911 56.4437 48.8089 56.4396 48.827C56.4354 48.8461 56.4311 48.8654 56.4271 48.8848C56.4219 48.9096 56.4171 48.9347 56.4133 48.9595C56.4005 49.0434 56.3993 49.1256 56.4333 49.1935C56.4439 49.2146 56.458 49.2345 56.4763 49.2526C56.5227 49.2985 56.5831 49.3193 56.6491 49.3265C56.721 49.3343 56.7996 49.3262 56.8741 49.3171ZM57.6114 46.7823C57.5628 46.7465 57.5114 46.7121 57.4573 46.6795C57.0694 46.4458 56.6767 46.3867 56.3764 46.3928M57.6114 46.7823L58.9294 44.7693C59.9873 43.1533 62.623 43.2239 63.3792 45.2411L66.4451 53.4216C67.9425 57.4169 65.5798 61.6162 61.6865 62.8808C61.4434 62.9724 61.1874 63.044 60.92 63.0925L54.7598 64.2112C50.2624 65.0279 45.9282 61.7829 45.925 57.148L45.9189 48.412C45.9174 46.2575 48.3602 45.2649 49.9186 46.4056L52.0373 47.9564L53.8232 46.504C54.4129 46.0244 55.2303 45.9386 55.9067 46.2853C55.9823 46.324 56.0545 46.3673 56.1231 46.4148C56.2014 46.403 56.2869 46.3946 56.3764 46.3928" fill="white"/>
<path fill-rule="evenodd" clip-rule="evenodd" d="M52.5738 56.0303C52.4706 56.1545 52.3873 56.2991 52.3338 56.4237C52.125 56.91 51.5614 57.135 51.0751 56.9262C50.5888 56.7174 50.3638 56.1539 50.5726 55.6676C50.788 55.1657 51.2659 54.4087 52.064 54.0517C52.4943 53.8593 52.999 53.7945 53.535 53.9426C54.054 54.086 54.5324 54.4089 54.9734 54.8684C55.3398 55.2503 55.3273 55.8569 54.9455 56.2234C54.5636 56.5899 53.9569 56.5774 53.5905 56.1955C53.3106 55.9039 53.1178 55.8158 53.0247 55.7901C52.9487 55.7691 52.9005 55.7772 52.8465 55.8013C52.7754 55.8332 52.6788 55.904 52.5738 56.0303Z" fill="white"/>
<path fill-rule="evenodd" clip-rule="evenodd" d="M59.1742 54.8317C59.071 54.9559 58.9876 55.1005 58.9342 55.2251C58.7254 55.7114 58.1618 55.9364 57.6755 55.7276C57.1891 55.5188 56.9641 54.9553 57.1729 54.4689C57.3884 53.9671 57.8662 53.21 58.6644 52.8531C59.0947 52.6606 59.5993 52.5959 60.1354 52.744C60.6544 52.8873 61.1328 53.2102 61.5737 53.6698C61.9402 54.0516 61.9277 54.6583 61.5458 55.0248C61.164 55.3912 60.5573 55.3787 60.1908 54.9969C59.911 54.7053 59.7181 54.6172 59.6251 54.5915C59.5491 54.5705 59.5009 54.5786 59.4469 54.6027C59.3758 54.6345 59.2792 54.7054 59.1742 54.8317Z" fill="white"/>
<path fill-rule="evenodd" clip-rule="evenodd" d="M49.3686 49.6296C49.7373 49.4738 50.164 49.5636 50.4387 49.8548L51.3139 50.7824C51.6397 51.1278 51.6635 51.6598 51.3697 52.0329L50.5783 53.0381C50.3304 53.3529 49.9127 53.4803 49.5313 53.3573C49.1499 53.2344 48.8852 52.887 48.8679 52.4867L48.7842 50.5539C48.7669 50.154 48.9999 49.7854 49.3686 49.6296Z" fill="white"/>
<path fill-rule="evenodd" clip-rule="evenodd" d="M60.5778 47.5941C60.9778 47.6103 61.3255 47.8733 61.4499 48.2538L62.0511 50.0926C62.1757 50.4735 62.0501 50.8917 61.7362 51.1409C61.4224 51.3901 60.9866 51.4178 60.6438 51.2102L59.5495 50.5474C59.1433 50.3015 58.9785 49.7951 59.1621 49.3572L59.6552 48.181C59.81 47.8119 60.1779 47.5778 60.5778 47.5941Z" fill="white"/>
</g>
<defs>
<linearGradient id="paint0_linear_913_566" x1="41" y1="71" x2="54.3855" y2="79.95" gradientUnits="userSpaceOnUse">
<stop stop-color="#CFCFD1"/>
<stop offset="1" stop-color="#E8E8EB" stop-opacity="0.6"/>
</linearGradient>
<linearGradient id="paint1_linear_913_566" x1="75.5" y1="63.5002" x2="90.0091" y2="73.0062" gradientUnits="userSpaceOnUse">
<stop stop-color="#CFCFD1"/>
<stop offset="1" stop-color="#E8E8EB" stop-opacity="0.6"/>
</linearGradient>
<linearGradient id="paint2_linear_913_566" x1="35.8244" y1="26.1139" x2="75.4369" y2="55.3983" gradientUnits="userSpaceOnUse">
<stop stop-color="#E8E8EB" stop-opacity="0.6"/>
<stop offset="1" stop-color="#CFCFD1"/>
</linearGradient>
<linearGradient id="paint3_linear_913_566" x1="56.5219" y1="16.6207" x2="73.1976" y2="21.1026" gradientUnits="userSpaceOnUse">
<stop stop-color="#E8E8EB" stop-opacity="0.6"/>
<stop offset="1" stop-color="#CFCFD1"/>
</linearGradient>
<linearGradient id="paint4_linear_913_566" x1="88.2942" y1="17.9964" x2="69.647" y2="22.6961" gradientUnits="userSpaceOnUse">
<stop stop-color="#E8E8EB" stop-opacity="0.6"/>
<stop offset="1" stop-color="#CFCFD1"/>
</linearGradient>
<linearGradient id="paint5_linear_913_566" x1="67.5" y1="7" x2="60.2227" y2="9.82645" gradientUnits="userSpaceOnUse">
<stop stop-color="#E8E8EB" stop-opacity="0.6"/>
<stop offset="1" stop-color="#CFCFD1"/>
</linearGradient>
</defs>
</svg>
